<mxfile host="app.diagrams.net" modified="2023-01-18T13:33:01.808Z" agent="5.0 (Windows NT 10.0; Win64; x64) AppleWebKit/537.36 (KHTML, like Gecko) Chrome/108.0.0.0 Safari/537.36" version="20.8.5" etag="QcbdID0xucXdyBkCyV7R" type="github">
  <diagram id="PIdQTnmlxoYbI_kyviSi" name="PÃ¡gina-1">
    <mxGraphModel dx="474" dy="1786" grid="1" gridSize="10" guides="1" tooltips="1" connect="1" arrows="1" fold="1" page="1" pageScale="1" pageWidth="827" pageHeight="1169" math="0" shadow="0">
      <root>
        <mxCell id="0" />
        <mxCell id="1" parent="0" />
        <mxCell id="VPaWRjNVk0UD1HPeV_L6-15" value="Id_Motorista&lt;br&gt;Nome_Motorista&lt;br&gt;CPF_Motorista&lt;br&gt;Fone_Motorista" style="whiteSpace=wrap;html=1;aspect=fixed;fontFamily=Verdana;align=left;" vertex="1" parent="1">
          <mxGeometry x="170" y="-498" width="190" height="190" as="geometry" />
        </mxCell>
        <mxCell id="VPaWRjNVk0UD1HPeV_L6-18" value="" style="edgeStyle=orthogonalEdgeStyle;rounded=0;orthogonalLoop=1;jettySize=auto;html=1;fontFamily=Verdana;" edge="1" parent="1" source="VPaWRjNVk0UD1HPeV_L6-17" target="VPaWRjNVk0UD1HPeV_L6-15">
          <mxGeometry relative="1" as="geometry" />
        </mxCell>
        <mxCell id="VPaWRjNVk0UD1HPeV_L6-17" value="Motorista" style="rounded=0;whiteSpace=wrap;html=1;fontFamily=Verdana;" vertex="1" parent="1">
          <mxGeometry x="170" y="-540" width="190" height="40" as="geometry" />
        </mxCell>
        <mxCell id="VPaWRjNVk0UD1HPeV_L6-20" value="" style="whiteSpace=wrap;html=1;aspect=fixed;fontFamily=Verdana;" vertex="1" parent="1">
          <mxGeometry x="500" y="-500" width="190" height="190" as="geometry" />
        </mxCell>
        <mxCell id="VPaWRjNVk0UD1HPeV_L6-21" value="" style="rounded=0;whiteSpace=wrap;html=1;fontFamily=Verdana;" vertex="1" parent="1">
          <mxGeometry x="500" y="-540" width="190" height="40" as="geometry" />
        </mxCell>
      </root>
    </mxGraphModel>
  </diagram>
</mxfile>
